<?xml version="1.0" encoding="utf-8"?>
<!-- Svg Vector Icons : http://www.onlinewebfonts.com/icon -->
<!DOCTYPE svg PUBLIC "-//W3C//DTD SVG 1.1//EN" "http://www.w3.org/Graphics/SVG/1.1/DTD/svg11.dtd">
<svg version="1.1" xmlns="http://www.w3.org/2000/svg" xmlns:xlink="http://www.w3.org/1999/xlink" x="0px" y="0px" viewBox="0 0 1000 1000" enable-background="new 0 0 1000 1000" xml:space="preserve">
<metadata> Svg Vector Icons : http://www.onlinewebfonts.com/icon </metadata>
<g><path d="M976.4,430.4c-9-21.2-21.6-39.4-37.6-54.7c-15.9-15.3-35.1-27.2-57.3-35.7c-22.3-8.6-46.4-12.9-72.5-12.9c-26.1,0-50.2,4.3-72.2,12.9c-22.1,8.5-41.2,20.5-57.4,35.7c-16.2,15.3-28.8,33.6-37.8,54.7c-9,21.2-13.5,44.3-13.5,69.4c0,25,4.5,48.1,13.5,69.3c9,21.2,21.6,39.5,37.8,54.7c16.2,15.4,35.3,27.3,57.4,36.1c22.1,8.7,46.1,13.1,72.2,13.1c26.1,0,50.2-4.4,72.5-13.1c22.2-8.7,41.4-20.7,57.3-36.1c16-15.3,28.6-33.5,37.6-54.7c9-21.2,13.6-44.3,13.6-69.3C990,474.7,985.5,451.6,976.4,430.4 M888.8,535.3c-3.8,11.2-9.4,20.9-16.7,29.1c-7.3,8.2-16.3,14.7-26.9,19.4c-10.6,4.8-22.7,7.2-36.2,7.2c-13.6,0-25.7-2.4-36.2-7.2c-10.6-4.8-19.6-11.2-26.9-19.4c-7.3-8.2-12.9-17.9-16.7-29.1c-3.9-11.2-5.8-23-5.8-35.5c0-12.5,1.9-24.4,5.8-35.5c3.8-11.3,9.4-20.9,16.7-29.2c7.3-8.2,16.3-14.7,26.9-19.5c10.6-4.8,22.7-7.1,36.2-7.1c13.5,0,25.6,2.4,36.2,7.1c10.6,4.8,19.6,11.3,26.9,19.5c7.3,8.3,12.9,17.9,16.7,29.2c3.8,11.1,5.7,23,5.7,35.5C894.6,512.3,892.7,524.1,888.8,535.3"/><path d="M609.1,569.1c-9-21.2-13.6-44.3-13.6-69.3c0-7.9,1.3-15.2,2.2-22.7h-91.3v67.6h60.5v31.6c-9.8,6.6-19.8,11.2-30.3,13.8c-10.4,2.6-21.4,4-32.8,4c-14.3,0-27.1-2.3-38.6-6.7c-11.4-4.4-21.2-10.7-29.2-18.8c-8-8.1-14.3-17.7-18.8-29.1c-4.6-11.3-6.8-24.1-6.8-38.2c0-12.8,2.1-24.9,6.3-36.3c4.2-11.3,10.2-21.2,18-29.6c7.8-8.4,17.5-15,28.9-19.9c11.5-4.9,24.7-7.4,39.6-7.4c16.4,0,33.3,2,45.9,7.9c34.6,16.2,43.7,25.9,53.4,35.5c2.1-8.4,3.3-13.1,6.6-20.9c7.5-17.6,18-32.6,30.3-46c-16.8-20.2-37.3-35-61.9-43.8c-25.3-9-52.2-13.5-81.1-13.5c-26.8,0-51.2,4.2-73.3,12.9c-22.1,8.5-41.2,20.4-57.1,35.7c-16,15.3-28.4,33.5-37.3,54.8c-4.7,11.2-7.9,22.9-10.2,35.2V335.9h-91.3v183.5L94,335.9H10v329.1h91.3v-189l138.7,189h78.7V538c2,11.9,5.1,23.2,9.1,33.7c8.2,21.5,20.1,39.6,35.7,54.6c15.6,15,34.7,26.5,57.1,34.5c22.4,8.1,47.7,12.1,75.9,12.1c27.1,0,54.1-3.7,81.1-11.1c26.9-7.4,50.8-19.5,71.6-36.2c-0.7-0.7-1.6-1.1-2.3-1.8C630.8,608.6,618.2,590.3,609.1,569.1"/></g>
</svg>